<!DOCTYPE svg PUBLIC "-//W3C//DTD SVG 1.1//EN" "http://www.w3.org/Graphics/SVG/1.1/DTD/svg11.dtd">
<!-- Uploaded to: SVG Repo, www.svgrepo.com, Transformed by: SVG Repo Mixer Tools -->
<svg height="800px" width="800px" version="1.1" id="Layer_1" xmlns="http://www.w3.org/2000/svg" xmlns:xlink="http://www.w3.org/1999/xlink" viewBox="-51.2 -51.2 614.40 614.40" xml:space="preserve" fill="#000000">
<g id="SVGRepo_bgCarrier" stroke-width="0">
<rect x="-51.2" y="-51.2" width="614.40" height="614.40" rx="0" fill="#66bf50" strokewidth="0"/>
</g>
<g id="SVGRepo_tracerCarrier" stroke-linecap="round" stroke-linejoin="round"/>
<g id="SVGRepo_iconCarrier"> <polygon style="fill:#fcfcfc;" points="501.801,213.023 298.977,213.023 298.977,10.199 213.023,10.199 213.023,213.023 10.199,213.023 10.199,298.977 213.023,298.977 213.023,501.801 298.977,501.801 298.977,298.977 501.801,298.977 "/> <g> <path style="fill:#000000;" d="M298.978,512h-85.956c-5.632,0-10.199-4.566-10.199-10.199V309.177H10.199 C4.567,309.177,0,304.61,0,298.977v-85.956c0-5.633,4.567-10.199,10.199-10.199h192.623V10.199C202.822,4.566,207.39,0,213.022,0 h85.956c5.632,0,10.199,4.566,10.199,10.199v192.623h192.624c5.632,0,10.199,4.566,10.199,10.199v85.956 c0,5.633-4.567,10.199-10.199,10.199H309.178v192.624C309.178,507.434,304.61,512,298.978,512z M223.221,491.602h65.557V298.977 c0-5.633,4.567-10.199,10.199-10.199h192.624v-65.557H298.978c-5.632,0-10.199-4.566-10.199-10.199V20.398h-65.557v192.623 c0,5.633-4.567,10.199-10.199,10.199H20.398v65.557h192.623c5.632,0,10.199,4.566,10.199,10.199V491.602z"/> <path style="fill:#000000;" d="M425.307,278.438H322.24c-5.632,0-10.199-4.566-10.199-10.199s4.567-10.199,10.199-10.199h103.067 c5.632,0,10.199,4.566,10.199,10.199S430.939,278.438,425.307,278.438z"/> <path style="fill:#000000;" d="M466.104,278.438h-6.901c-5.632,0-10.199-4.566-10.199-10.199s4.567-10.199,10.199-10.199h6.901 c5.632,0,10.199,4.566,10.199,10.199S471.736,278.438,466.104,278.438z"/> </g> </g>
</svg>