<?xml version="1.0" ?>
<!DOCTYPE svg  PUBLIC '-//W3C//DTD SVG 1.1//EN'  'http://www.w3.org/Graphics/SVG/1.1/DTD/svg11.dtd'>
<!-- Uploaded to: SVG Repo, www.svgrepo.com, Generator: SVG Repo Mixer Tools -->
<svg fill="#000000" width="800px" height="800px" viewBox="0 0 250 250" style="fill-rule:evenodd;clip-rule:evenodd;stroke-linecap:round;stroke-linejoin:round;stroke-miterlimit:1.5;" version="1.1" xml:space="preserve" xmlns="http://www.w3.org/2000/svg" xmlns:serif="http://www.serif.com/" xmlns:xlink="http://www.w3.org/1999/xlink">
<g transform="matrix(0.856565,0.333528,-0.461343,1.18482,77.8083,-51.3566)">
<path d="M171.473,116.454C171.178,116.216 145.518,125.446 145.518,125.446C145.518,125.446 151.025,174.062 155.387,198.261C155.387,201.453 158.972,204.044 163.387,204.044C167.803,204.044 171.387,201.453 171.387,198.261L171.387,179.334C174.833,172.98 174.427,167.364 171.387,162.252C176.462,154.695 175.813,147.927 171.387,141.681C184.77,130.318 182.121,125.078 171.473,116.454Z" style="fill:rgb(15,169,84);"/>
</g>
<path d="M167.776,143.897C169.695,143.775 170.93,143.73 170.961,143.811C176.103,157.581 175.955,164.672 159.249,173.672C160.158,182.549 157.592,190.784 149.759,198.046C150.004,205.116 147.76,211.906 141.878,218.284L133.146,240.709C131.674,244.491 127.408,246.366 123.626,244.893C119.844,243.421 117.969,239.155 119.441,235.373L119.448,235.347C122.69,235.724 125.907,233.892 127.146,230.709L135.878,208.284C141.76,201.906 144.004,195.116 143.759,188.046C151.592,180.784 154.158,172.549 153.249,163.672C165.329,157.164 168.751,151.654 167.776,143.897Z" style="fill:rgb(14,124,63);"/>
<g transform="matrix(0.856565,0.333528,-0.461343,1.18482,77.8083,-51.3566)">
<path d="M171.473,116.454C171.178,116.216 145.518,125.446 145.518,125.446C145.518,125.446 151.025,174.062 155.387,198.261C155.387,201.453 158.972,204.044 163.387,204.044C167.803,204.044 171.387,201.453 171.387,198.261L171.387,179.334C174.833,172.98 174.427,167.364 171.387,162.252C176.462,154.695 175.813,147.927 171.387,141.681C184.77,130.318 182.121,125.078 171.473,116.454Z" style="fill:none;stroke:black;stroke-width:6.76px;"/>
</g>
<g transform="matrix(-0.7069,0.016151,-0.0406591,-1.77957,242.447,272.151)">
<path d="M133.637,84.857L90.939,84.857L101.614,73.357L129.367,73.357L133.637,84.857Z" style="fill:rgb(191,191,191);"/>
</g>
<path d="M171.947,130.674L145.891,131.27L144.529,123.301L174.712,122.611L171.947,130.674Z" style="fill:rgb(140,140,140);"/>
<g transform="matrix(-0.7069,0.016151,-0.0406591,-1.77957,242.447,272.151)">
<path d="M133.637,84.857L90.939,84.857L101.614,73.357L129.367,73.357L133.637,84.857Z" style="fill:none;stroke:black;stroke-width:5.54px;"/>
</g>
<g transform="matrix(0.495994,0.845784,-0.845784,0.495994,173.165,-38.5787)">
<path d="M92.438,93.919C97.175,87.032 101.368,79.279 104.782,70.828C121.267,30.016 117.358,-7.718 93.131,-22.312C92.462,-22.715 91.677,-22.87 90.939,-23.11C118.914,-22.545 141.512,12.97 141.512,56.633C141.512,70.097 139.363,82.787 135.569,93.919L92.438,93.919Z" style="fill:rgb(191,191,191);"/>
</g>
<g transform="matrix(1,0,0,1,-3,0)">
<path d="M179.757,82.311L195.507,109.169L195.455,109.2C184.067,115.878 172.269,120.354 160.971,122.667L139.579,86.187C147.753,86.777 156.39,86.479 165.231,85.174C170.261,84.432 175.114,83.472 179.757,82.311Z" style="fill:rgb(140,140,140);"/>
</g>
<g transform="matrix(0.495994,0.845784,-0.845784,0.495994,173.165,-38.5787)">
<path d="M92.438,93.919C97.175,87.032 101.368,79.279 104.782,70.828C121.267,30.016 117.358,-7.718 93.131,-22.312C92.462,-22.715 91.677,-22.87 90.939,-23.11C118.914,-22.545 141.512,12.97 141.512,56.633C141.512,70.097 139.363,82.787 135.569,93.919L92.438,93.919Z" style="fill:none;stroke:black;stroke-width:7.65px;"/>
</g>
<g transform="matrix(0.495994,0.845784,-0.845784,0.495994,173.165,-38.5787)">
<path d="M84.383,93.919C80.806,51.682 68.933,16.581 52.999,-1.288C53.497,-1.305 53.998,-1.314 54.5,-1.314C85.683,-1.314 111,31.441 111,71.785C111,79.499 110.074,86.935 108.359,93.919L84.383,93.919Z" style="fill:rgb(191,191,191);"/>
</g>
<g transform="matrix(1,0,0,1,-2,1)">
<path d="M135.584,79.374C155.848,65.064 161.717,62.738 166.543,65.851L178.969,80.082C178.546,83.635 178.453,84.489 167.506,90.908C160.982,94.734 154.233,97.64 147.475,99.653L135.584,79.374Z" style="fill:rgb(140,140,140);"/>
</g>
<g transform="matrix(0.495994,0.845784,-0.845784,0.495994,173.165,-38.5787)">
<path d="M84.383,93.919C80.806,51.682 68.933,16.581 52.999,-1.288C53.497,-1.305 53.998,-1.314 54.5,-1.314C85.683,-1.314 111,31.441 111,71.785C111,79.499 110.074,86.935 108.359,93.919L84.383,93.919Z" style="fill:none;stroke:black;stroke-width:7.65px;"/>
</g>
<g transform="matrix(0.495994,0.845784,-0.845784,0.495994,173.165,-38.5787)">
<path d="M142.793,79.569C143.927,76.444 143.467,72.962 141.559,70.239C139.651,67.516 136.535,65.895 133.211,65.895C123.306,65.89 109.975,65.89 99.397,65.89C95.069,65.89 90.943,67.724 88.043,70.936C85.142,74.149 83.738,78.44 84.179,82.746C86.142,102.838 85.345,122.726 81.999,142.419L102.4,142.419C105.729,129.72 105.924,121.579 118.228,116.383C128.901,111.876 136.851,96.143 142.793,79.569Z" style="fill:rgb(191,191,191);stroke:black;stroke-width:7.65px;"/>
</g>
<g transform="matrix(0.319996,0.545667,-0.845784,0.495994,188.523,-12.3898)">
<path d="M113.826,142.419L75.637,128.544C69.102,137.266 66.663,146.516 75.637,157.239L75.637,212.773C70.787,218.632 71.187,224.115 75.637,229.307L75.637,239.794C75.637,243.933 80.846,247.294 87.262,247.294C93.678,247.294 98.887,243.933 98.887,239.794C100.124,207.336 101.046,174.877 113.826,142.419Z" style="fill:rgb(15,169,84);"/>
</g>
<path d="M104.3,109.416L104.491,120.36C72.949,129.486 45.201,145.082 17.353,160.506C13.852,162.559 9.343,161.384 7.29,157.883C5.484,154.804 6.175,150.945 8.75,148.663C11.067,150.72 14.536,151.158 17.353,149.506C45.146,134.112 72.838,118.548 104.3,109.416Z" style="fill:rgb(14,124,63);"/>
<g transform="matrix(0.319996,0.545667,-0.845784,0.495994,188.523,-12.3898)">
<path d="M113.826,142.419L75.637,128.544C69.102,137.266 66.663,146.516 75.637,157.239L75.637,212.773C70.787,218.632 71.187,224.115 75.637,229.307L75.637,239.794C75.637,243.933 80.846,247.294 87.262,247.294C93.678,247.294 98.887,243.933 98.887,239.794C100.124,207.336 101.046,174.877 113.826,142.419Z" style="fill:none;stroke:black;stroke-width:9.09px;"/>
</g>
</svg>